<svg width="73" height="72" viewBox="0 0 73 72" fill="none" xmlns="http://www.w3.org/2000/svg">
<path fill-rule="evenodd" clip-rule="evenodd" d="M36.1667 72C56.049 72 72.1667 55.8823 72.1667 36C72.1667 16.1177 56.049 0 36.1667 0C22.8018 0 11.1379 7.28296 4.92718 18.0967L3.33573 21.2093C2.76138 22.4822 2.25888 23.7945 1.83341 25.141C1.64704 25.7379 1.22468 27.1743 1.0262 28.1452C0.463524 30.6736 0.166748 33.3021 0.166748 36C0.166748 39.5318 0.67535 42.9449 1.6233 46.1699C1.85895 47.0199 2.40828 48.5268 2.65348 49.174C3.20601 50.5785 3.84427 51.9398 4.56181 53.2516L6.35099 56.1811C12.825 65.7273 23.7634 72 36.1667 72ZM36.1667 69.6789C54.7414 69.6789 69.7992 54.6211 69.7992 36.0464C69.7992 17.4717 54.7414 2.4139 36.1667 2.4139C17.5919 2.4139 2.53415 17.4717 2.53415 36.0464C2.53415 54.6211 17.5919 69.6789 36.1667 69.6789Z" fill="#D9D9D9"/>
<circle cx="36.1667" cy="36" r="28.8" fill="black" fill-opacity="0.5"/>
<path fill-rule="evenodd" clip-rule="evenodd" d="M44.715 33.3764H47.0904C49.5352 33.3764 51.5243 35.3655 51.5242 37.8102V44.24C51.5242 45.7069 50.3308 46.9004 48.8639 46.9004H47.663C47.8573 46.0512 47.96 45.1671 47.96 44.259C47.96 41.3106 46.878 38.6149 45.0894 36.5473V35.5003C45.0894 34.7547 44.9571 34.0393 44.715 33.3764ZM43.2671 34.842C42.9481 32.7082 41.1032 31.0665 38.882 31.0665H33.4516C31.2304 31.0665 29.3855 32.7082 29.0665 34.842C31.0417 33.3504 33.5009 32.4658 36.1668 32.4658C38.8327 32.4658 41.2919 33.3504 43.2671 34.842ZM27.2442 36.5473V35.5004C27.2442 34.7547 27.3764 34.0394 27.6186 33.3765H25.2432C22.7984 33.3765 20.8093 35.3655 20.8093 37.8103V44.2402C20.8093 45.707 22.0027 46.9005 23.4696 46.9005H24.6706C24.4763 46.0513 24.3737 45.1671 24.3737 44.259C24.3737 41.3106 25.4556 38.6149 27.2442 36.5473ZM30.8345 24.6423C30.8345 21.702 33.2266 19.3099 36.1668 19.3099C39.107 19.3099 41.4991 21.702 41.4991 24.6423C41.4991 26.6366 40.3984 28.3785 38.7727 29.293C38.0017 29.7267 37.1127 29.9746 36.1668 29.9746C35.2209 29.9746 34.3319 29.7267 33.5609 29.293C31.9353 28.3785 30.8345 26.6366 30.8345 24.6423ZM22.8156 28.2679C22.8156 26.069 24.6045 24.2801 26.8034 24.2801C29.0024 24.2801 30.7913 26.069 30.7913 28.2679C30.7919 28.9214 30.6309 29.565 30.3226 30.1412C29.8969 30.9376 29.2091 31.5734 28.3749 31.9325C27.8785 32.1462 27.3438 32.2562 26.8034 32.2557C24.6045 32.2557 22.8156 30.4668 22.8156 28.2679ZM41.5423 28.2679C41.5423 26.069 43.3312 24.2801 45.5302 24.2801C47.7291 24.2801 49.518 26.069 49.518 28.2679C49.518 30.4668 47.7291 32.2557 45.5302 32.2557C44.9898 32.2562 44.455 32.1462 43.9587 31.9325C43.1245 31.5734 42.4367 30.9376 42.011 30.1412C41.7027 29.565 41.5417 28.9214 41.5423 28.2679Z" fill="white"/>
<path fill-rule="evenodd" clip-rule="evenodd" d="M36.1668 53.0947C41.0467 53.0947 45.0026 49.1388 45.0026 44.259C45.0026 39.3791 41.0467 35.4232 36.1668 35.4232C31.287 35.4232 27.3311 39.3791 27.3311 44.259C27.3311 49.1388 31.287 53.0947 36.1668 53.0947ZM31.8411 45.4441C31.427 45.9298 31.427 46.7209 31.8411 47.2066L33.9645 49.6991C34.1652 49.9347 34.4317 50.0644 34.7155 50.0644C34.9311 50.0644 35.1388 49.9883 35.3161 49.8454L40.9585 45.2986C41.1927 45.1104 41.3503 44.8261 41.4019 44.4987C41.4537 44.1713 41.3938 43.8397 41.2328 43.5651C41.0342 43.226 40.7073 43.0241 40.3572 43.0241C40.1413 43.0241 39.9333 43.1001 39.757 43.2431L34.8418 47.2041L33.3423 45.4441C33.142 45.2085 32.8751 45.0788 32.5917 45.0788C32.3083 45.0788 32.0415 45.2085 31.8411 45.4441ZM34.7155 45.4943C34.4317 45.4943 34.1648 45.3647 33.9645 45.1291L31.8412 42.6357C31.4271 42.15 31.4271 41.3589 31.8412 40.8732C32.0415 40.6376 32.3084 40.508 32.5918 40.508C32.8752 40.508 33.1421 40.6375 33.3424 40.8731L34.8418 42.6336L39.757 38.6725C39.9333 38.5296 40.1417 38.4536 40.3572 38.4536C40.7076 38.4536 41.0349 38.6559 41.2331 38.9946C41.3938 39.2693 41.4536 39.6008 41.4019 39.9282C41.3499 40.2556 41.1924 40.5394 40.9585 40.7281L35.3161 45.2754C35.1387 45.4183 34.931 45.4943 34.7155 45.4943Z" fill="white"/>
</svg>
