<svg width="73" height="73" viewBox="0 0 73 73" fill="none" xmlns="http://www.w3.org/2000/svg">
<path fill-rule="evenodd" clip-rule="evenodd" d="M36.1667 72.5C56.049 72.5 72.1667 56.3823 72.1667 36.5C72.1667 16.6177 56.049 0.5 36.1667 0.5C22.8018 0.5 11.1379 7.78296 4.92718 18.5967L3.33573 21.7093C2.76138 22.9822 2.25888 24.2945 1.83341 25.641C1.64704 26.2379 1.22468 27.6743 1.0262 28.6452C0.463524 31.1736 0.166748 33.8021 0.166748 36.5C0.166748 40.0318 0.67535 43.4449 1.6233 46.6699C1.85895 47.5199 2.40828 49.0268 2.65348 49.674C3.20601 51.0785 3.84427 52.4398 4.56181 53.7516L6.35099 56.6811C12.825 66.2273 23.7634 72.5 36.1667 72.5ZM36.1667 70.1789C54.7414 70.1789 69.7992 55.1211 69.7992 36.5464C69.7992 17.9717 54.7414 2.9139 36.1667 2.9139C17.5919 2.9139 2.53415 17.9717 2.53415 36.5464C2.53415 55.1211 17.5919 70.1789 36.1667 70.1789Z" fill="#D9D9D9"/>
<circle cx="36.1667" cy="36.5" r="28.8" fill="black" fill-opacity="0.5"/>
<path d="M22.0879 44.7854V47.0636C22.0879 48.9469 26.6762 50.4781 32.3316 50.4781C37.987 50.4781 42.5754 48.9469 42.5754 47.0636V44.7854C40.3719 46.338 36.3438 47.0636 32.3316 47.0636C28.3195 47.0636 24.2914 46.338 22.0879 44.7854ZM39.1608 29.9907C44.8162 29.9907 49.4045 28.4594 49.4045 26.5761C49.4045 24.6927 44.8162 23.1615 39.1608 23.1615C33.5054 23.1615 28.9171 24.6927 28.9171 26.5761C28.9171 28.4594 33.5054 29.9907 39.1608 29.9907ZM22.0879 39.1887V41.9417C22.0879 43.8251 26.6762 45.3563 32.3316 45.3563C37.987 45.3563 42.5754 43.8251 42.5754 41.9417V39.1887C40.3719 41.0027 36.3384 41.9417 32.3316 41.9417C28.3248 41.9417 24.2914 41.0027 22.0879 39.1887ZM44.2827 39.7756C47.3398 39.1834 49.4045 38.0843 49.4045 36.8198V34.5417C48.1668 35.4166 46.3474 36.0142 44.2827 36.3823V39.7756ZM32.3316 31.698C26.6762 31.698 22.0879 33.608 22.0879 35.9662C22.0879 38.3244 26.6762 40.2344 32.3316 40.2344C37.987 40.2344 42.5754 38.3244 42.5754 35.9662C42.5754 33.608 37.987 31.698 32.3316 31.698ZM44.0319 34.7017C47.2331 34.1255 49.4045 32.9944 49.4045 31.698V29.4198C47.5105 30.7589 44.256 31.4792 40.8307 31.6499C42.4046 32.4129 43.5624 33.4373 44.0319 34.7017Z" fill="white"/>
</svg>
