<svg width="72" height="72" viewBox="0 0 72 72" fill="none" xmlns="http://www.w3.org/2000/svg">
<path opacity="0.1" fill-rule="evenodd" clip-rule="evenodd" d="M36 72C55.8822 72 72 55.8823 72 36C72 16.1177 55.8822 0 36 0C22.635 0 10.9711 7.28296 4.76043 18.0967L3.16899 21.2093C2.59464 22.4822 2.09213 23.7945 1.66666 25.141C1.48029 25.7379 1.05794 27.1743 0.859448 28.1452C0.296776 30.6736 0 33.3021 0 36C0 39.5318 0.508602 42.9449 1.45655 46.1699C1.69221 47.0199 2.24153 48.5268 2.48674 49.174C3.03926 50.5785 3.67752 51.9398 4.39506 53.2516L6.18424 56.1811C12.6583 65.7273 23.5966 72 36 72ZM36 69.6789C54.5747 69.6789 69.6325 54.6212 69.6325 36.0464C69.6325 17.4717 54.5747 2.41392 36 2.41392C17.4253 2.41392 2.36748 17.4717 2.36748 36.0464C2.36748 54.6212 17.4253 69.6789 36 69.6789Z" fill="#022426"/>
<circle opacity="0.6" cx="36.6" cy="36.6" r="29.4" fill="black" fill-opacity="0.33"/>
<circle opacity="0.6" cx="36.5" cy="36.5" r="25" fill="white" fill-opacity="0.3" stroke="white"/>
<path d="M44.25 35.3393C44.25 36.3519 45.0768 37.1787 46.0894 37.1787H51V33.5H46.0894C45.0768 33.5 44.25 34.3268 44.25 35.3393ZM47.9343 35.3393C47.9343 35.6769 47.6587 35.9524 47.3213 35.9524H46.095C45.7574 35.9524 45.4819 35.6767 45.4819 35.3393C45.4819 35.0017 45.7576 34.7263 46.095 34.7263H47.3213C47.6587 34.7263 47.9343 35.002 47.9343 35.3393Z" fill="white"/>
<path d="M33.776 27.9764C33.6298 27.6894 33.5396 27.369 33.5396 27.0257C33.5396 26.6881 33.8153 26.4127 34.1527 26.4127C34.4903 26.4127 34.7657 26.6884 34.7657 27.0257C34.7657 27.5208 35.165 27.9201 35.6601 27.9201C36.1552 27.9201 36.5545 27.5209 36.5545 27.0257C36.5545 26.5307 36.1552 26.1314 35.6601 26.1314C34.4901 26.1314 33.5394 25.1808 33.5394 24.0106C33.5394 23.0544 34.1751 22.2556 35.0468 21.9912L35.0473 21.5074C35.0473 21.1698 35.323 20.8943 35.6603 20.8943C35.9979 20.8943 36.2734 21.17 36.2734 21.5074V21.9968C37.1397 22.2612 37.7808 23.06 37.7808 24.0163C37.7808 24.3539 37.5051 24.6293 37.1678 24.6293C36.8302 24.6293 36.5547 24.3537 36.5547 24.0163C36.5547 23.5212 36.1554 23.1219 35.6603 23.1219C35.1653 23.1219 34.766 23.5212 34.766 24.0163C34.766 24.5114 35.1652 24.9107 35.6603 24.9107C36.8304 24.9107 37.7811 25.8613 37.7811 27.0314C37.7811 27.3744 37.6911 27.6951 37.5447 27.982H40.5934C40.9703 27.2225 41.1841 26.3844 41.1841 25.5296C41.1841 25.3385 41.1728 25.1527 41.1561 24.9729C40.8747 22.1374 38.5123 20 35.6603 20C32.8085 20 30.446 22.1374 30.1646 24.967C30.1477 25.1471 30.1366 25.3326 30.1366 25.5183C30.1366 26.3734 30.3447 27.2115 30.7273 27.9707H33.776L33.776 27.9764Z" fill="white"/>
<path d="M51 27.9764V32.274H49.1606V30.4346C49.1606 29.0791 48.0581 27.9766 46.7026 27.9766H41.9381C42.2418 27.2004 42.4106 26.368 42.4106 25.5242H48.6152C49.9314 25.5238 51 26.6262 51 27.9764Z" fill="white"/>
<path d="M29.3777 27.9764H25.1869C24.5289 27.9764 24.0002 27.425 24.0002 26.75C24.0002 26.4181 24.124 26.1087 24.3545 25.8782C24.5796 25.6475 24.8719 25.5239 25.1869 25.5239H28.9106C28.9108 26.3674 29.074 27.2 29.3777 27.9764Z" fill="white"/>
<path d="M43.0235 35.3393C43.0235 37.0325 44.4017 38.4107 46.0892 38.4107H47.9342V45.7737C47.9342 46.4486 47.3828 47 46.7022 47H25.2263C24.5514 47 24 46.4486 24 45.7737V28.8762C24.3487 29.0787 24.7538 29.2025 25.1867 29.2025H46.7024C47.383 29.2025 47.9343 29.7539 47.9343 30.4345V32.2739H46.0894C44.4019 32.2736 43.0235 33.6518 43.0235 35.3393Z" fill="white"/>
<path d="M51 38.4106V42.0893C51 42.7699 50.4712 43.3157 49.8133 43.3157H49.1607V38.4106H51Z" fill="white"/>
</svg>
