<svg width="72" height="72" viewBox="0 0 72 72" fill="none" xmlns="http://www.w3.org/2000/svg">
<path opacity="0.1" fill-rule="evenodd" clip-rule="evenodd" d="M36 72C55.8822 72 72 55.8823 72 36C72 16.1177 55.8822 0 36 0C22.635 0 10.9711 7.28296 4.76043 18.0967L3.16899 21.2093C2.59464 22.4822 2.09213 23.7945 1.66666 25.141C1.48029 25.7379 1.05794 27.1743 0.859448 28.1452C0.296776 30.6736 0 33.3021 0 36C0 39.5318 0.508602 42.9449 1.45655 46.1699C1.69221 47.0199 2.24153 48.5268 2.48674 49.174C3.03926 50.5785 3.67752 51.9398 4.39506 53.2516L6.18424 56.1811C12.6583 65.7273 23.5966 72 36 72ZM36 69.6789C54.5747 69.6789 69.6325 54.6212 69.6325 36.0464C69.6325 17.4717 54.5747 2.41392 36 2.41392C17.4253 2.41392 2.36748 17.4717 2.36748 36.0464C2.36748 54.6212 17.4253 69.6789 36 69.6789Z" fill="#022426"/>
<circle opacity="0.6" cx="36.6002" cy="36.6" r="29.4" fill="black" fill-opacity="0.33"/>
<circle opacity="0.6" cx="36.5" cy="36.6" r="25" fill="white" fill-opacity="0.3" stroke="white"/>
<path d="M33.8256 42.7287L36.4997 45.4198L37.0301 45.9502C38.589 47.4904 40.7667 48.0225 42.7489 47.5261C43.1229 49.1564 44.5747 50.36 46.3087 50.36C48.3096 50.36 49.9399 48.7297 49.9399 46.7118C49.9399 44.9965 48.7533 43.543 47.1417 43.1724C47.6551 41.1698 47.1247 38.9734 45.5658 37.4162L45.3533 37.2037L42.6792 39.8965L42.873 40.0903C43.7587 40.9573 43.74 42.3734 42.873 43.2574C42.006 44.1261 40.5882 44.1261 39.7212 43.2574L39.1891 42.727L36.515 40.0342L33.6641 37.202L30.99 39.8948L33.8256 42.7287ZM36.8176 28.0305L39.5087 30.7199L39.7229 30.5074C40.5899 29.6404 42.0077 29.6404 42.8747 30.5074C43.7417 31.3761 43.7417 32.8109 42.8747 33.6779L36.8363 39.7163L39.5087 42.4074L42.3596 39.5735L45.0337 36.8841L45.5658 36.3537C47.1961 34.7421 47.6908 32.4216 47.072 30.3493C48.7006 29.9957 49.9042 28.5439 49.9042 26.8082C49.9042 24.7886 48.2739 23.16 46.273 23.16C44.4489 23.16 42.9614 24.4877 42.6792 26.2064C40.714 25.7457 38.5703 26.2965 37.0301 27.8163L36.8176 28.0305ZM25.9274 30.4207C25.3426 32.4556 25.8577 34.7404 27.4676 36.352L27.6801 36.5645L30.3542 33.8717L30.1417 33.6609C29.2747 32.7922 29.2747 31.3744 30.1417 30.5074C31.0087 29.6404 32.4265 29.6404 33.2935 30.5074L39.3506 36.5662L42.0417 33.8734L39.1908 31.0395L36.4997 28.3501L35.9863 27.818C34.3747 26.2081 32.0729 25.693 30.0176 26.2965C29.7711 24.5234 28.2479 23.16 26.4051 23.16C24.4042 23.16 22.7739 24.7903 22.7739 26.8082C22.7756 28.6493 24.156 30.1725 25.9274 30.4207ZM26.3711 50.36C28.1408 50.36 29.6113 49.1037 29.9479 47.4377C32.0015 48.0735 34.3577 47.5805 35.9863 45.9502L36.1801 45.7377L33.506 43.0466L33.2935 43.2574C32.4265 44.1261 31.0087 44.1261 30.1417 43.2574C29.2747 42.3904 29.2747 40.9743 30.1417 40.1056L30.6721 39.5735L36.1988 34.0502L33.5077 31.3574L27.9827 36.8841L27.4676 37.4145C25.9274 38.9547 25.3783 41.1341 25.8747 43.1163C24.1033 43.3645 22.7399 44.8707 22.7399 46.7101C22.7399 48.7297 24.3685 50.36 26.3711 50.36Z" fill="white"/>
</svg>
