<svg width="73" height="72" viewBox="0 0 73 72" fill="none" xmlns="http://www.w3.org/2000/svg">
<path fill-rule="evenodd" clip-rule="evenodd" d="M36.8334 72C56.7156 72 72.8334 55.8823 72.8334 36C72.8334 16.1177 56.7156 0 36.8334 0C23.4684 0 11.8045 7.28296 5.59381 18.0967L4.00236 21.2093C3.42801 22.4822 2.92551 23.7945 2.50003 25.141C2.31366 25.7379 1.89131 27.1743 1.69282 28.1452C1.13015 30.6736 0.833374 33.3021 0.833374 36C0.833374 39.5318 1.34198 42.9449 2.28993 46.1699C2.52558 47.0199 3.0749 48.5268 3.32011 49.174C3.87264 50.5785 4.51089 51.9398 5.22844 53.2516L7.01762 56.1811C13.4917 65.7273 24.43 72 36.8334 72ZM36.8333 69.6789C55.408 69.6789 70.4658 54.6211 70.4658 36.0464C70.4658 17.4717 55.408 2.4139 36.8333 2.4139C18.2586 2.4139 3.20078 17.4717 3.20078 36.0464C3.20078 54.6211 18.2586 69.6789 36.8333 69.6789Z" fill="#D9D9D9"/>
<circle cx="36.8335" cy="36" r="28.8" fill="black" fill-opacity="0.5"/>
<path d="M48.4346 43.371C48.2804 43.371 48.1282 43.3793 47.9779 43.3944L46.2355 37.9144C46.9117 37.6075 47.5233 37.1866 48.0439 36.6762C49.1792 35.5633 49.8819 34.0276 49.8819 32.3347C49.8819 28.9458 47.0669 26.1884 43.6074 26.1884C41.8791 26.1884 40.3113 26.8767 39.1747 27.9888C38.0374 29.1021 37.3333 30.6391 37.3333 32.3347C37.3333 33.0904 37.4735 33.8145 37.7293 34.4837L34.6456 36.1661C33.4765 34.3647 31.5288 33.0938 29.2699 32.8119V30.5783C30.3847 30.3902 31.3852 29.8703 32.1594 29.1246C33.1645 28.1569 33.789 26.8097 33.789 25.3228C33.789 22.3812 31.3463 19.9884 28.3434 19.9884C26.8255 19.9884 25.4505 20.6002 24.4622 21.5848C23.4955 22.5481 22.8979 23.8682 22.8979 25.3228C22.8979 27.914 24.7938 30.0784 27.2978 30.5575V32.8206C25.642 33.0422 24.1563 33.795 23.0269 34.8988C21.6653 36.2279 20.8219 38.0664 20.8219 40.0942C20.8219 44.1428 24.1844 47.4359 28.3166 47.4359C30.3867 47.4359 32.2635 46.6096 33.6204 45.2759C34.9739 43.9476 35.8112 42.1142 35.8112 40.0942C35.8112 39.339 35.6942 38.61 35.477 37.9239L38.7034 36.1634C39.8542 37.5746 41.6245 38.4805 43.6074 38.4805C43.8539 38.4805 44.0972 38.4661 44.3366 38.4387L46.1118 44.0211C45.8411 44.186 45.5895 44.3778 45.362 44.5945C44.5377 45.3802 44.0244 46.4782 44.0244 47.6912C44.0244 50.0733 46.0031 52.0115 48.4346 52.0115C49.673 52.0115 50.7939 51.5087 51.596 50.7012C52.369 49.9226 52.845 48.86 52.845 47.6912C52.845 45.3086 50.8663 43.371 48.4346 43.371Z" fill="white"/>
</svg>
