<svg width="73" height="72" viewBox="0 0 73 72" fill="none" xmlns="http://www.w3.org/2000/svg">
<path fill-rule="evenodd" clip-rule="evenodd" d="M36.5 72C56.3822 72 72.5 55.8823 72.5 36C72.5 16.1177 56.3822 0 36.5 0C23.135 0 11.4711 7.28296 5.26043 18.0967L3.66899 21.2093C3.09464 22.4822 2.59213 23.7945 2.16666 25.141C1.98029 25.7379 1.55794 27.1743 1.35945 28.1452C0.796776 30.6736 0.5 33.3021 0.5 36C0.5 39.5318 1.0086 42.9449 1.95655 46.1699C2.19221 47.0199 2.74153 48.5268 2.98674 49.174C3.53926 50.5785 4.17752 51.9398 4.89506 53.2516L6.68424 56.1811C13.1583 65.7273 24.0966 72 36.5 72ZM36.4999 69.6789C55.0746 69.6789 70.1324 54.6211 70.1324 36.0464C70.1324 17.4717 55.0746 2.4139 36.4999 2.4139C17.9252 2.4139 2.8674 17.4717 2.8674 36.0464C2.8674 54.6211 17.9252 69.6789 36.4999 69.6789Z" fill="#D9D9D9"/>
<circle cx="36.5002" cy="36" r="28.8" fill="black" fill-opacity="0.5"/>
<path fill-rule="evenodd" clip-rule="evenodd" d="M31.147 28.8132L36.5001 18L41.8529 28.8132L53.7903 30.5797L45.1718 38.9838L47.2061 50.9211L36.5 45.3003L25.7939 50.9211L27.8281 38.9838L19.2097 30.5797L30.789 28.8662L27.4792 27.1285L24.0523 28.9277L24.7035 25.1067L21.9448 22.4166L25.7658 21.8512L27.4793 18.39L29.1927 21.8512L33.0137 22.4166L30.255 25.1067L30.893 28.8508L31.147 28.8132Z" fill="white"/>
</svg>
