<svg width="72" height="72" viewBox="0 0 72 72" fill="none" xmlns="http://www.w3.org/2000/svg">
<path opacity="0.1" fill-rule="evenodd" clip-rule="evenodd" d="M36 72C55.8822 72 72 55.8823 72 36C72 16.1177 55.8822 0 36 0C22.635 0 10.9711 7.28296 4.76043 18.0967L3.16899 21.2093C2.59464 22.4822 2.09213 23.7945 1.66666 25.141C1.48029 25.7379 1.05794 27.1743 0.859448 28.1452C0.296776 30.6736 0 33.3021 0 36C0 39.5318 0.508602 42.9449 1.45655 46.1699C1.69221 47.0199 2.24153 48.5268 2.48674 49.174C3.03926 50.5785 3.67752 51.9398 4.39506 53.2516L6.18424 56.1811C12.6583 65.7273 23.5966 72 36 72ZM36 69.6789C54.5747 69.6789 69.6325 54.6212 69.6325 36.0464C69.6325 17.4717 54.5747 2.41392 36 2.41392C17.4253 2.41392 2.36748 17.4717 2.36748 36.0464C2.36748 54.6212 17.4253 69.6789 36 69.6789Z" fill="#022426"/>
<circle opacity="0.6" cx="36.6002" cy="36.6" r="29.4" fill="black" fill-opacity="0.33"/>
<circle opacity="0.6" cx="36.5" cy="36.5" r="25" fill="white" fill-opacity="0.3" stroke="white"/>
<path d="M46.3623 34.7376H44.2178C44.4364 35.3185 44.5558 35.9454 44.5558 36.5988V45.8114C44.5558 46.0838 44.5069 46.3453 44.4181 46.5884H47.9635C49.2879 46.5884 50.3654 45.5426 50.3654 44.2572V38.6229C50.3654 36.4806 48.5696 34.7376 46.3623 34.7376ZM28.4444 36.5988C28.4444 35.9454 28.5638 35.3186 28.7824 34.7377H26.6378C24.4305 34.7377 22.6348 36.4806 22.6348 38.623V44.2574C22.6348 45.5428 23.7122 46.5885 25.0366 46.5885H28.5821C28.4909 46.339 28.4443 46.0762 28.4444 45.8114V36.5988ZM38.9515 32.7135H34.0487C31.8414 32.7135 30.0456 34.4564 30.0456 36.5988V45.8114C30.0456 46.2405 30.4041 46.5885 30.8462 46.5885H42.1539C42.5961 46.5885 42.9546 46.2406 42.9546 45.8114V36.5988C42.9546 34.4564 41.1588 32.7135 38.9515 32.7135ZM36.5001 22.4114C33.8455 22.4114 31.6859 24.5075 31.6859 27.084C31.6859 28.8317 32.6797 30.358 34.1474 31.1593C34.8435 31.5394 35.6461 31.7566 36.5001 31.7566C37.3541 31.7566 38.1567 31.5394 38.8528 31.1593C40.3205 30.358 41.3143 28.8316 41.3143 27.084C41.3143 24.5075 39.1546 22.4114 36.5001 22.4114ZM28.0465 26.7666C26.0612 26.7666 24.4461 28.3342 24.4461 30.2611C24.4461 32.188 26.0612 33.7556 28.0465 33.7556C28.5343 33.756 29.0171 33.6596 29.4652 33.4724C30.2184 33.1576 30.8394 32.6005 31.2237 31.9027C31.5021 31.3977 31.6474 30.8338 31.6468 30.2611C31.6468 28.3343 30.0318 26.7666 28.0465 26.7666ZM44.9537 26.7666C42.9684 26.7666 41.3533 28.3342 41.3533 30.2611C41.3527 30.8338 41.4981 31.3977 41.7765 31.9027C42.1608 32.6006 42.7818 33.1577 43.535 33.4724C43.983 33.6596 44.4658 33.756 44.9537 33.7556C46.939 33.7556 48.5541 32.188 48.5541 30.2611C48.5541 28.3342 46.939 26.7666 44.9537 26.7666Z" fill="white"/>
</svg>
