<svg width="73" height="73" viewBox="0 0 73 73" fill="none" xmlns="http://www.w3.org/2000/svg">
<path fill-rule="evenodd" clip-rule="evenodd" d="M36.5 72.5C56.3822 72.5 72.5 56.3823 72.5 36.5C72.5 16.6177 56.3822 0.5 36.5 0.5C23.135 0.5 11.4711 7.78296 5.26043 18.5967L3.66899 21.7093C3.09464 22.9822 2.59213 24.2945 2.16666 25.641C1.98029 26.2379 1.55794 27.6743 1.35945 28.6452C0.796776 31.1736 0.5 33.8021 0.5 36.5C0.5 40.0318 1.0086 43.4449 1.95655 46.6699C2.19221 47.5199 2.74153 49.0268 2.98674 49.674C3.53926 51.0785 4.17752 52.4398 4.89506 53.7516L6.68424 56.6811C13.1583 66.2273 24.0966 72.5 36.5 72.5ZM36.4999 70.1789C55.0746 70.1789 70.1324 55.1211 70.1324 36.5464C70.1324 17.9717 55.0746 2.9139 36.4999 2.9139C17.9252 2.9139 2.8674 17.9717 2.8674 36.5464C2.8674 55.1211 17.9252 70.1789 36.4999 70.1789Z" fill="#D9D9D9"/>
<circle cx="36.5002" cy="36.5" r="28.8" fill="black" fill-opacity="0.5"/>
<path fill-rule="evenodd" clip-rule="evenodd" d="M32.6388 30.7713L32.6418 30.7771L32.6418 30.7713H32.6388ZM32.6388 30.7713C32.4891 30.4754 32.3969 30.1455 32.3969 29.7922C32.3969 29.4425 32.6825 29.1571 33.0321 29.1571C33.3819 29.1571 33.6672 29.4427 33.6672 29.7922C33.6672 30.3052 34.0809 30.7189 34.5939 30.7189C35.1068 30.7189 35.5205 30.3052 35.5205 29.7922C35.5205 29.2793 35.1068 28.8656 34.5939 28.8656C33.3816 28.8656 32.3967 27.8807 32.3967 26.6684C32.3967 25.6776 33.0552 24.85 33.9585 24.5761L33.959 24.0748C33.959 23.725 34.2446 23.4397 34.5941 23.4397C34.9439 23.4397 35.2293 23.7253 35.2293 24.0748V24.5819C36.1269 24.8558 36.7911 25.6835 36.7911 26.6742C36.7911 27.024 36.5054 27.3094 36.1559 27.3094C35.8061 27.3094 35.5207 27.0238 35.5207 26.6742C35.5207 26.1613 35.1071 25.7476 34.5941 25.7476C34.0812 25.7476 33.6675 26.1613 33.6675 26.6742C33.6675 27.1872 34.0812 27.6009 34.5941 27.6009C35.8064 27.6009 36.7913 28.5858 36.7913 29.7981C36.7913 30.1535 36.6981 30.4857 36.5464 30.783H39.7051C40.0956 29.9961 40.3171 29.1278 40.3171 28.2421C40.3171 28.0441 40.3054 27.8516 40.2881 27.6653C39.9966 24.7276 37.5489 22.5131 34.5941 22.5131C31.6394 22.5131 29.1916 24.7276 28.9002 27.6592C28.8826 27.8458 28.8711 28.038 28.8711 28.2304C28.8711 29.1163 29.0868 29.9847 29.4831 30.7713H32.6388ZM45.3993 40.3114C44.3502 40.3114 43.4936 39.4548 43.4936 38.4057C43.4936 37.3566 44.3502 36.5 45.3993 36.5H50.4871V40.3114H45.3993ZM46.6757 39.0408C47.0252 39.0408 47.3108 38.7555 47.3108 38.4057C47.3108 38.0561 47.0252 37.7705 46.6757 37.7705H45.4051C45.0556 37.7705 44.77 38.0559 44.77 38.4057C44.77 38.7552 45.0553 39.0408 45.4051 39.0408H46.6757ZM50.4871 30.7771V35.2298H48.5813V33.3241C48.5813 31.9196 47.4391 30.7774 46.0346 30.7774H41.0983C41.413 29.9732 41.5878 29.1107 41.5878 28.2365H48.0162C49.38 28.2361 50.4871 29.3782 50.4871 30.7771ZM23.7429 30.7771H28.0848C27.7702 29.9728 27.6011 29.1102 27.6009 28.2362H23.7429C23.4166 28.2362 23.1136 28.3643 22.8805 28.6033C22.6417 28.8421 22.5134 29.1626 22.5134 29.5066C22.5134 30.2059 23.0612 30.7771 23.7429 30.7771ZM42.2229 38.4057C42.2229 40.1599 43.6507 41.5878 45.3991 41.5878H47.3106V49.2164C47.3106 49.9157 46.7394 50.4869 46.0343 50.4869H23.7837C23.0845 50.4869 22.5132 49.9157 22.5132 49.2164V31.7095C22.8744 31.9192 23.2942 32.0475 23.7427 32.0475H46.0345C46.7396 32.0475 47.3108 32.6188 47.3108 33.3239V35.2296H45.3993C43.6509 35.2294 42.2229 36.6573 42.2229 38.4057ZM50.4871 45.3992V41.5877H48.5814V46.6697H49.2575C49.9392 46.6697 50.4871 46.1043 50.4871 45.3992ZM35.5103 41.68H39.0905V39.6078H35.5103V35.9816H33.346V39.6078H29.7659V41.68H33.346V45.3062H35.5103V41.68Z" fill="white"/>
</svg>
