<svg width="52" height="52" viewBox="0 0 52 52" fill="none" xmlns="http://www.w3.org/2000/svg">
<ellipse cx="26.4533" cy="25.572" rx="25.4851" ry="25.4851" fill="#20934A"/>
<path d="M47.0101 26.7446C46.4022 37.5685 37.4318 46.1582 26.455 46.1582C15.0846 46.1582 5.86709 36.9415 5.86709 25.572C5.86709 14.2026 15.0846 4.98581 26.455 4.98581C36.7622 4.98581 45.3003 12.5595 46.8069 22.445H46.4235C44.9203 12.7697 36.5525 5.3647 26.455 5.3647C15.2939 5.3647 6.24601 14.4118 6.24601 25.572C6.24601 36.7322 15.2939 45.7793 26.455 45.7793C37.2225 45.7793 46.0231 37.3591 46.6305 26.7446H47.0101Z" fill="white"/>
<path d="M40.2039 12.05C42.9356 14.8268 44.8324 18.4274 45.4876 22.445H45.1278C44.4765 18.5272 42.6218 15.0162 39.9564 12.3045C39.833 12.3437 39.6928 12.3182 39.5899 12.2252L38.5314 11.2692C38.4254 11.1735 38.3865 11.0313 38.4177 10.9016C35.157 8.23995 30.9925 6.64365 26.455 6.64365C26.3679 6.64365 26.2809 6.64423 26.1941 6.64541V6.94199C26.194 6.94199 26.1942 6.94199 26.1941 6.94199L26.1944 7.26593L26.2131 7.28469C26.2068 7.28477 26.2004 7.28485 26.1941 7.28494V7.59352C26.2809 7.59228 26.3679 7.59166 26.455 7.59166L26.455 7.92259C26.3679 7.92259 26.2809 7.92322 26.1941 7.92448V8.24505C26.2809 8.24377 26.3679 8.24312 26.455 8.24312L26.455 8.56206C26.3679 8.56206 26.2809 8.56272 26.1941 8.56402V8.63479H26.0151C26.1899 8.64091 26.3397 8.74542 26.4108 8.89464C26.4255 8.8946 26.4403 8.89458 26.455 8.89458V9.28546C26.455 9.28546 26.455 9.28546 26.455 9.28546L26.4549 9.54605C26.4549 9.54605 26.4549 9.54605 26.4549 9.54605L26.455 9.92166C26.455 9.92166 26.455 9.92166 26.455 9.92166L26.4549 10.1975C26.4549 10.1975 26.4549 10.1975 26.4549 10.1975L26.455 10.5578C26.455 10.5578 26.455 10.5578 26.455 10.5578L26.4549 10.849C26.4549 10.849 26.4549 10.849 26.4549 10.849L26.455 11.194C26.455 11.194 26.455 11.194 26.455 11.194L26.4549 11.3059C26.4549 11.5578 26.2507 11.762 25.9988 11.762C25.7469 11.762 25.5426 11.5578 25.5426 11.3059V9.0906C25.5426 8.84415 25.7381 8.64335 25.9825 8.63479H25.8031V8.57432C25.738 8.57678 25.673 8.57959 25.608 8.58278V8.26346C25.673 8.26033 25.738 8.25757 25.8031 8.25516V7.9344C25.738 7.93677 25.673 7.93949 25.608 7.94255V7.61126C25.673 7.60824 25.738 7.60558 25.8031 7.60326V7.29452C25.7959 7.29477 25.7887 7.29503 25.7815 7.29529L25.8031 7.26644V6.65466C15.6502 6.99822 7.52505 15.3363 7.52505 25.572C7.52505 35.5879 15.3051 43.7869 25.152 44.4563V44.4644H25.2782C25.3662 44.4698 25.4543 44.4746 25.5426 44.4788V42.5099H25.7222C25.4778 42.5014 25.2823 42.3006 25.2823 42.0541V39.8388C25.2823 39.5869 25.4865 39.3827 25.7384 39.3827C25.9903 39.3827 26.1945 39.5869 26.1945 39.8388V42.0541C26.1945 42.3006 25.999 42.5014 25.7546 42.5099H25.9336V42.5741C25.9336 42.5741 25.9337 42.5741 25.9336 42.5741L25.9338 42.8932C25.9338 42.8932 25.9337 42.8932 25.9338 42.8932L25.9336 43.2139C25.9336 43.2139 25.9337 43.2139 25.9336 43.2139L25.9338 43.545C25.9338 43.545 25.9337 43.545 25.9338 43.545L25.9336 43.8536C25.9336 43.8536 25.9337 43.8536 25.9336 43.8536L25.9338 44.1967C25.9338 44.1967 25.9337 44.1967 25.9338 44.1967L25.9336 44.4933C26.1068 44.498 26.2806 44.5004 26.455 44.5004C36.5159 44.5004 44.7436 36.6523 45.3492 26.7446H45.7048C45.0987 36.8485 36.712 44.8553 26.455 44.8553C26.2807 44.8553 26.1069 44.853 25.9336 44.8484V44.8556H25.5426V44.8341C15.3155 44.3578 7.17012 35.9161 7.17012 25.572C7.17012 15.1403 15.4542 6.64327 25.8031 6.29955V6.28913H26.1941V6.29047C26.2809 6.28931 26.3679 6.28874 26.455 6.28874C31.0832 6.28874 35.3306 7.91897 38.6543 10.6365C38.7811 10.5902 38.9287 10.6139 39.0359 10.7107L40.0944 11.6666C40.2046 11.7662 40.2423 11.9162 40.2039 12.05Z" fill="white"/>
<path d="M25.152 43.1741V43.5059C25.1519 43.5059 25.152 43.5059 25.152 43.5059L25.1519 43.8152C25.1518 43.8152 25.1519 43.8152 25.1519 43.8152L25.152 44.159C15.469 43.4902 7.82164 35.4241 7.82164 25.572C7.82164 15.6317 15.6066 7.50956 25.4126 6.96886V7.31232C15.7961 7.8526 8.16458 15.8212 8.16458 25.572C8.16458 35.146 15.5217 43.0017 24.8912 43.795V43.4853C15.6923 42.6929 8.47316 34.9755 8.47316 25.572C8.47316 16.9377 14.5597 9.72487 22.6765 7.98928V7.98289H22.7065C23.1256 7.89404 23.55 7.81979 23.9792 7.76069L23.9798 9.28603H22.6765V8.98314C22.3676 9.05319 22.0619 9.13165 21.7597 9.21826L21.1126 9.35061V9.41781C14.3346 11.6578 9.44363 18.0438 9.44363 25.572C9.44363 33.0034 14.2096 39.3218 20.852 41.6377V41.7934L23.7186 42.3797L25.152 42.6403V42.8527C16.1893 42.1865 9.12467 34.7042 9.12467 25.572C9.12467 17.2992 14.9223 10.3803 22.6765 8.65619V8.32791C14.7438 10.0578 8.8041 17.1213 8.8041 25.572C8.8041 34.8813 16.0121 42.5072 25.152 43.1741Z" fill="white"/>
<path d="M20.852 41.285C14.3967 38.9834 9.77619 32.8172 9.77619 25.572C9.77619 18.2297 14.5214 11.9955 21.1126 9.7685V10.1818C21.1123 10.1819 21.112 10.182 21.1117 10.1821V10.4583C21.112 10.4582 21.1123 10.4581 21.1126 10.458V10.857C16.0097 12.7098 12.1439 17.1408 11.09 22.5753H11.3711C12.4146 17.2942 16.1628 12.985 21.1126 11.151V11.536C21.1123 11.5361 21.112 11.5362 21.1117 11.5363V11.8484C21.112 11.8483 21.1123 11.8481 21.1126 11.848V12.2191C17.169 13.7981 14.0878 17.0732 12.7713 21.1421H16.8126C16.8126 20.9982 16.9292 20.8815 17.0732 20.8815H19.6792C19.8232 20.8815 19.9398 20.9982 19.9398 21.1421H22.0247V21.5329H19.9398C19.9398 21.6769 19.8232 21.7935 19.6792 21.7935H17.0732C16.9292 21.7935 16.8126 21.6769 16.8126 21.5329H12.2917C13.53 17.1833 16.7181 13.655 20.851 11.9528V11.6384C16.2311 13.4979 12.749 17.5882 11.7387 22.5753H16.8126C16.8126 22.4314 16.9292 22.3147 17.0732 22.3147H19.6792C19.8232 22.3147 19.9398 22.4314 19.9398 22.5753H22.0247V22.9662H19.9398C19.9398 23.1101 19.8232 23.2267 19.6792 23.2267H17.0732C16.9292 23.2267 16.8126 23.1101 16.8126 22.9662H10.6385C11.5752 17.2387 15.5483 12.5321 20.851 10.553V10.2751C15.0843 12.3879 10.8451 17.6682 10.2412 24.0085H16.8126C16.8126 23.8646 16.9292 23.7479 17.0732 23.7479H19.6792C19.8232 23.7479 19.9398 23.8646 19.9398 24.0085H22.0247V24.3994H19.9398C19.9398 24.5433 19.8232 24.66 19.6792 24.66H17.0732C16.9292 24.66 16.8126 24.5433 16.8126 24.3994H10.2087C10.1811 24.7867 10.1671 25.1777 10.1671 25.572C10.1671 32.5 14.4932 38.4177 20.5916 40.7714V40.4916C14.6403 38.1513 10.4277 32.3536 10.4277 25.572C10.4277 25.5285 10.4279 25.4851 10.4282 25.4417H16.8126C16.8126 25.2978 16.9292 25.1811 17.0732 25.1811H19.6792C19.8232 25.1811 19.9398 25.2978 19.9398 25.4417H22.0247V25.8326H19.9398C19.9398 25.9765 19.8232 26.0932 19.6792 26.0932H17.0732C16.9292 26.0932 16.8126 25.9765 16.8126 25.8326H11.4418C11.5456 31.9327 15.2877 37.1467 20.5916 39.3984V39.0814C15.5654 36.8973 11.996 31.9909 11.7449 26.2235H12.0903C12.3433 31.896 15.8834 36.7135 20.852 38.8175L20.8523 39.6441L20.852 39.8938C15.2074 37.6842 11.1878 32.2344 11.0814 25.8326H10.8055C10.9125 32.3893 15.052 37.9655 20.852 40.1897V41.285Z" fill="white"/>
<path d="M30.755 39.2961C35.6247 37.7721 39.3804 33.7282 40.4947 28.6917L41.032 27.6619C40.2348 33.272 36.275 37.8639 31.0152 39.5753V39.8813C36.4385 38.1547 40.5247 33.4309 41.3268 27.6567H41.6906C40.8682 33.7228 36.5076 38.6651 30.755 40.3372V39.2961Z" fill="white"/>
<path d="M40.9909 21.7935H41.363C40.0509 16.6016 36.0974 12.4611 31.0156 10.8851L31.0154 11.7614L31.0156 11.9323C35.1987 13.3301 38.5255 16.598 40.0033 20.7436L40.6178 21.5314C39.3021 16.9116 35.7867 13.2185 31.276 11.6563V11.3485C36.0328 12.96 39.7197 16.8903 40.9909 21.7935Z" fill="white"/>
<path d="M24.5004 10.0672H21.8944V14.8104H19.7914V18.7348H31.2285V27.6046C31.2285 30.9866 29.4815 33.6348 25.7381 33.6348C22.0258 33.6348 20.2165 31.6885 20.2165 27.8598H16.161C16.161 32.4824 18.299 35.5503 21.6338 36.8638V41.2071H24.2398V37.5048C24.7246 37.5622 25.2246 37.591 25.7381 37.591C26.2093 37.591 26.6656 37.5652 27.1065 37.5149V41.2071H29.9732V36.7606C33.4017 35.2606 35.3463 31.8563 35.3463 27.6046V14.8104H30.2338V10.0672H27.3671V14.8104H24.5004V10.0672Z" fill="white"/>
<path d="M28.6702 20.8815H22.8065V27.0034C22.7218 27.272 22.6762 27.557 22.6762 27.8521C22.6762 29.4712 24.0472 30.7837 25.7383 30.7837C27.4295 30.7837 28.8005 29.4712 28.8005 27.8521C28.8005 27.557 28.7549 27.272 28.6702 27.0034V20.8815Z" fill="white"/>
<path fill-rule="evenodd" clip-rule="evenodd" d="M26.455 46.8097C38.0546 46.8097 47.4824 37.5118 47.6909 25.9629H47.0393C47.0417 25.8329 47.0429 25.7026 47.0429 25.572C47.0429 25.4414 47.0417 25.3111 47.0393 25.1811H45.6096V24.7903H46.3763C46.3662 24.5283 46.3511 24.2677 46.331 24.0085H46.9844C46.9647 23.7465 46.9402 23.4859 46.9108 23.2267H47.5664C46.399 12.6011 37.3925 4.33435 26.455 4.33435C14.7248 4.33435 5.21558 13.8428 5.21558 25.572C5.21558 37.3012 14.7248 46.8097 26.455 46.8097ZM46.6603 25.9629C46.6627 25.8329 46.664 25.7026 46.664 25.572H45.6096V25.9629H46.6603ZM29.3518 45.2978C28.4061 45.4355 27.4389 45.5067 26.455 45.5067C15.4444 45.5067 6.51861 36.5817 6.51861 25.572C6.51861 23.7359 6.76687 21.9577 7.23166 20.2693C7.13154 20.2072 7.08311 20.0826 7.12179 19.9659L7.64311 18.3927C7.68261 18.2735 7.79993 18.2019 7.91996 18.2157C10.8475 10.847 18.0428 5.63727 26.455 5.63727C36.5373 5.63727 44.8715 13.1208 46.2051 22.8359H47.1255C45.7856 12.6155 37.0418 4.72523 26.455 4.72523C14.9407 4.72523 5.60649 14.0586 5.60649 25.572C5.60649 37.0854 14.9407 46.4188 26.455 46.4188C37.7075 46.4188 46.878 37.5049 47.2891 26.3538H46.3763C46.0308 35.3141 39.7706 42.7577 31.3892 44.8915C31.3481 45.0174 31.2417 45.1177 31.1025 45.1446L29.7019 45.4146C29.5681 45.4404 29.4371 45.3919 29.3518 45.2978ZM29.2695 44.939C28.3504 45.0713 27.4107 45.1399 26.455 45.1399C15.6471 45.1399 6.88553 36.379 6.88553 25.572C6.88553 23.7749 7.12782 22.0343 7.58153 20.3812C7.69355 20.3843 7.7991 20.3144 7.83616 20.2026L8.35748 18.6294C8.3937 18.5201 8.35354 18.4039 8.26607 18.3386C11.1429 11.1121 18.2024 6.00418 26.455 6.00418C36.3343 6.00418 44.5037 13.3242 45.8347 22.8359H44.8889C43.5714 13.8847 35.8881 7.00435 26.5853 6.94064V7.28358C35.6984 7.34716 43.2277 14.0748 44.5421 22.8359H43.655V22.5753C43.655 22.4623 43.5831 22.3661 43.4825 22.33C42.1395 15.2343 36.4702 9.66862 29.3209 8.47897V8.15406C36.6862 9.35656 42.5194 15.1171 43.8297 22.445H44.1659C42.7737 14.5069 36.1742 8.36114 28.0186 7.6587V7.85271H28.0177V9.15585H29.3209V8.80243C36.2886 9.98446 41.8142 15.4028 43.1548 22.3147H42.8158C41.5967 16.1577 36.9882 11.2196 31.0156 9.52572L31.0154 10.3282L31.0156 10.5964C36.2501 12.1882 40.3223 16.4488 41.6474 21.7935H42.0343C40.7136 16.3297 36.5929 11.9585 31.276 10.2838V10.0107C36.9053 11.7524 41.2294 16.4642 42.4171 22.3147H42.2217C42.0778 22.3147 41.9611 22.4314 41.9611 22.5753V22.8359H41.3096L38.9641 20.23H37.6611V19.8391H36.358V21.1421H37.6611V20.6209H38.9641L41.3096 23.2267H41.9611V23.6176H41.1793L39.7459 22.1844H37.6611V21.7935H36.358V23.0965H37.6611V22.5753H39.7459L41.1793 24.0085H41.9611V24.3994H37.6611V24.0085H36.358V25.3114H37.6611V24.7903H41.9611V25.1811H41.1793L39.7459 26.6144H37.6611V26.2235H36.358V27.5264H37.6611V27.0052H39.7459L41.1793 25.572H41.9611V25.9629H41.3096L39.7459 28.5687H37.6611V28.0476H36.358V29.3505H37.6611V28.9596H39.7459L41.3096 26.3538H41.9611V26.8749C41.9611 27.0188 42.0778 27.1355 42.2217 27.1355H42.6688C42.029 33.8525 37.3091 39.3799 31.0152 41.2116V40.94C37.0007 39.1669 41.5248 33.9927 42.3479 27.6567H41.969C41.1411 33.8758 36.6608 38.9407 30.755 40.6243L30.7545 41.468L30.755 41.6899C37.396 39.9231 42.4082 34.1616 43.0615 27.1355H43.3954C42.6119 35.7328 35.4305 42.4814 26.6518 42.5809L26.3247 42.6403V42.9004L26.4088 42.9008L26.455 42.9009C35.7643 42.9009 43.3592 35.5614 43.768 26.3538H43.9505C43.9955 26.4317 44.0798 26.4841 44.1762 26.4841H44.7231C44.2499 36.1181 36.3215 43.7925 26.5854 43.8605V43.5519C36.0631 43.4846 43.7978 36.0856 44.3992 26.7446H44.0675C43.464 35.9455 35.8092 43.2214 26.455 43.2214C26.4115 43.2214 26.3681 43.2213 26.3247 43.221V43.5519C26.3247 43.5519 26.3247 43.5519 26.3247 43.5519V44.2034C26.3681 44.2037 26.4115 44.2038 26.455 44.2038C36.4401 44.2038 44.5908 36.3505 45.0664 26.4841H45.349C45.4454 26.4841 45.5296 26.4317 45.5747 26.3538H46.0091C45.6641 35.1359 39.5307 42.4311 31.3177 44.531C31.2326 44.4313 31.0978 44.379 30.96 44.4056L29.5594 44.6756C29.4164 44.7032 29.3081 44.8083 29.2695 44.939ZM43.9156 25.9629V25.572H43.655V25.9629H43.9156ZM43.9156 25.1811H43.781C43.7781 25.0505 43.7738 24.9202 43.768 24.7903H43.9156V25.1811ZM43.9505 24.3994H43.7463C43.7375 24.2687 43.7274 24.1384 43.7157 24.0085H46.0005V24.3994H45.5747C45.5296 24.3215 45.4454 24.2691 45.349 24.2691H44.1762C44.0798 24.2691 43.9955 24.3215 43.9505 24.3994ZM46.5707 23.6176C46.5581 23.487 46.5444 23.3567 46.5293 23.2267H43.655V23.6176H46.5707Z" fill="white"/>
</svg>
