<svg width="73" height="73" viewBox="0 0 73 73" fill="none" xmlns="http://www.w3.org/2000/svg">
<path fill-rule="evenodd" clip-rule="evenodd" d="M36.8334 72.5C56.7156 72.5 72.8334 56.3823 72.8334 36.5C72.8334 16.6177 56.7156 0.5 36.8334 0.5C23.4684 0.5 11.8045 7.78296 5.59381 18.5967L4.00236 21.7093C3.42801 22.9822 2.92551 24.2945 2.50003 25.641C2.31366 26.2379 1.89131 27.6743 1.69282 28.6452C1.13015 31.1736 0.833374 33.8021 0.833374 36.5C0.833374 40.0318 1.34198 43.4449 2.28993 46.6699C2.52558 47.5199 3.0749 49.0268 3.32011 49.674C3.87264 51.0785 4.51089 52.4398 5.22844 53.7516L7.01762 56.6811C13.4917 66.2273 24.43 72.5 36.8334 72.5ZM36.8333 70.1789C55.408 70.1789 70.4658 55.1211 70.4658 36.5464C70.4658 17.9717 55.408 2.9139 36.8333 2.9139C18.2586 2.9139 3.20078 17.9717 3.20078 36.5464C3.20078 55.1211 18.2586 70.1789 36.8333 70.1789Z" fill="#D9D9D9"/>
<circle cx="36.8335" cy="36.5" r="28.8" fill="black" fill-opacity="0.5"/>
<path d="M27.5585 30.0986L27.4679 43.6024L30.7523 43.6024C31.7885 43.6025 32.7983 43.9286 33.6389 44.5345C34.4794 45.1403 35.1081 45.9953 35.4357 46.9783C35.7635 47.9613 36.3923 48.8163 37.233 49.4222C38.0736 50.0281 39.0836 50.3542 40.1199 50.3542L45.7527 50.3542L45.5636 30.0986L27.5585 30.0986ZM20.8067 34.5999L25.3807 34.5999L25.5536 30.1649L24.1826 30.0986C23.8841 30.0986 23.5979 29.98 23.3869 29.769C23.1758 29.558 23.0573 29.2717 23.0573 28.9733C23.0573 28.6748 23.1758 28.3886 23.3869 28.1776C23.5979 27.9665 23.8841 27.848 24.1826 27.848L48.9395 27.848C49.238 27.848 49.5242 27.9665 49.7352 28.1776C49.9463 28.3886 50.0648 28.6748 50.0648 28.9733C50.0648 29.2717 49.9463 29.558 49.7352 29.769C49.5242 29.98 49.238 30.0986 48.9395 30.0986L47.4461 30.0986L47.5989 34.5999L52.3161 34.5999C52.913 34.5999 53.4855 34.3627 53.9076 33.9407C54.3297 33.5186 54.5668 32.9461 54.5668 32.3492L54.5668 23.3467L18.5567 23.3467L18.5567 32.3492C18.5567 32.946 18.7938 33.5184 19.2157 33.9404C19.6376 34.3625 20.2099 34.5997 20.8067 34.5999Z" fill="white"/>
</svg>
